HIERARCHY
ROOT Pelvis
{
	OFFSET 0.000000 0.000000 0.000000
	CHANNELS 6 Xposition Yposition Zposition Xrotation Yrotation Zrotation
	JOINT LeftUpLeg_virtual
	{
		OFFSET 0.000000 0.000000 0.000000
		CHANNELS 3 Xrotation Yrotation Zrotation
		JOINT LeftUpLeg
		{
			OFFSET 18.735201 -5.666702 -4.541200
			CHANNELS 3 Xrotation Yrotation Zrotation
			JOINT LeftLeg
			{
				OFFSET -0.021200 -31.938179 0.493100
				CHANNELS 3 Xrotation Yrotation Zrotation
				JOINT LeftFoot
				{
					OFFSET 0.021200 -31.938179 -4.336299
					CHANNELS 3 Xrotation Yrotation Zrotation
					JOINT LeftToeBase
					{
						OFFSET 0.943001 -26.722000 15.023500
						CHANNELS 3 Xrotation Yrotation Zrotation
						End Site
						{
							OFFSET 0 0 0
						}
					}
				}
			}
		}
	}
	JOINT RightUpLeg_virtual
	{
		OFFSET 0.000000 0.000000 0.000000
		CHANNELS 3 Xrotation Yrotation Zrotation
		JOINT RightUpLeg
		{
			OFFSET -18.735201 -5.666702 -4.541200
			CHANNELS 3 Xrotation Yrotation Zrotation
			JOINT RightLeg
			{
				OFFSET 0.018946 -31.938133 0.493100
				CHANNELS 3 Xrotation Yrotation Zrotation
				JOINT RightFoot
				{
					OFFSET -0.018946 -31.938126 -4.336299
					CHANNELS 3 Xrotation Yrotation Zrotation
					JOINT RightToeBase
					{
						OFFSET -0.943001 -26.722004 15.023500
						CHANNELS 3 Xrotation Yrotation Zrotation
						End Site
						{
							OFFSET 0 0 0
						}
					}
				}
			}
		}
	}
	JOINT Hips_virtual
	{
		OFFSET 0.000000 0.000000 0.000000
		CHANNELS 3 Xrotation Yrotation Zrotation
		JOINT Hips
		{
			OFFSET -0.000000 -0.000000 -0.000000
			CHANNELS 3 Xrotation Yrotation Zrotation
			JOINT Spine
			{
				OFFSET 0.000000 10.199997 -0.299500
				CHANNELS 3 Xrotation Yrotation Zrotation
				JOINT Spine1
				{
					OFFSET 0.000000 11.900002 -1.516600
					CHANNELS 3 Xrotation Yrotation Zrotation
					JOINT Spine2
					{
						OFFSET 0.000000 13.600006 -2.842500
						CHANNELS 3 Xrotation Yrotation Zrotation
						JOINT Neck_virtual
						{
							OFFSET 0.000000 0.000000 0.000000
							CHANNELS 3 Xrotation Yrotation Zrotation
							JOINT Neck
							{
								OFFSET 0.000000 9.624100 -2.890100
								CHANNELS 3 Xrotation Yrotation Zrotation
								JOINT Head
								{
									OFFSET 0.000000 14.068802 -1.351900
									CHANNELS 3 Xrotation Yrotation Zrotation
									End Site
									{
										OFFSET 0 0 0
									}
								}
							}
						}
						JOINT LeftShoulder_virtual
						{
							OFFSET 0.000000 0.000000 0.000000
							CHANNELS 3 Xrotation Yrotation Zrotation
							JOINT LeftShoulder
							{
								OFFSET 15.263000 10.923401 -0.547700
								CHANNELS 3 Xrotation Yrotation Zrotation
								JOINT LeftArm
								{
									OFFSET 25.438599 -2.830597 -13.032500
									CHANNELS 3 Xrotation Yrotation Zrotation
									JOINT LeftForeArm
									{
										OFFSET 29.960503 0.000000 0.000000
										CHANNELS 3 Xrotation Yrotation Zrotation
										JOINT LeftHand
										{
											OFFSET 27.849251 0.000000 0.000000
											CHANNELS 3 Xrotation Yrotation Zrotation
											End Site
											{
												OFFSET 0 0 0
											}
										}
									}
								}
							}
						}
						JOINT RightShoulder_virtual
						{
							OFFSET 0.000000 0.000000 0.000000
							CHANNELS 3 Xrotation Yrotation Zrotation
							JOINT RightShoulder
							{
								OFFSET -15.263000 10.923401 -0.547700
								CHANNELS 3 Xrotation Yrotation Zrotation
								JOINT RightArm
								{
									OFFSET -25.438599 -2.830597 -13.032500
									CHANNELS 3 Xrotation Yrotation Zrotation
									JOINT RightForeArm
									{
										OFFSET -29.960503 0.000000 0.000000
										CHANNELS 3 Xrotation Yrotation Zrotation
										JOINT RightHand
										{
											OFFSET -27.849251 0.000000 0.000000
											CHANNELS 3 Xrotation Yrotation Zrotation
											End Site
											{
												OFFSET 0 0 0
											}
										}
									}
								}
							}
						}
					}
				}
			}
		}
	}
}
MOTION
Frames: 8
Frame Time: 0.03333333
5.470945 76.312172 -4.820236 0.000000 0.000000 0.000000 28.270232 -84.747819 31.017672 -37.120350 -13.054884 16.436003 54.970845 -10.063813 20.691887 -18.567593 -3.617113 -25.386662 0.000000 0.000000 0.000000 28.699048 -83.703873 30.836972 -23.001475 9.957367 -36.283146 52.713990 8.835625 -8.507222 -30.043338 0.840294 29.873096 0.000000 0.000000 0.000000 27.849451 -82.276910 30.727600 -1.217448 2.877825 -0.153811 3.206087 4.574187 3.422449 -0.365736 3.652021 0.941167 0.000000 0.000000 0.000000 0.445685 3.724326 0.690773 -1.282340 3.381820 -0.779078 0.000000 0.000000 0.000000 0.625858 3.849150 0.754985 0.945644 10.537385 -6.368685 -8.611038 3.738678 -66.531807 178.054699 -67.533188 176.799296 0.000000 0.000000 0.000000 0.017926 3.880050 0.848035 0.749694 11.040699 11.729046 -7.262787 36.979355 44.550025 -174.542370 76.206497 174.733915 0.000000 0.000000 0.000000 
5.277479 76.200294 -4.740135 0.000000 0.000000 0.000000 21.058785 -85.265712 23.762716 -38.282575 -14.118937 17.548113 54.592462 -10.781462 19.555846 -19.322436 -3.760826 -27.744997 0.000000 0.000000 0.000000 20.034400 -84.621556 21.919030 -22.127323 8.628607 -36.754194 53.137509 8.865238 -8.366947 -30.489503 0.520818 31.912129 0.000000 0.000000 0.000000 20.177277 -82.907958 22.679587 -1.074840 2.683227 -0.233157 3.060548 4.590014 3.912773 -0.157233 3.748769 0.920593 0.000000 0.000000 0.000000 0.556732 3.752361 0.671083 -1.184792 3.291814 -0.784665 0.000000 0.000000 0.000000 0.692111 3.894536 0.750048 0.890643 10.610802 -5.665533 -6.594724 1.307042 -66.601851 177.430133 -66.708627 175.902137 0.000000 0.000000 0.000000 0.082024 3.928159 0.887899 0.621968 10.191552 10.367367 -8.077216 36.628423 46.591244 -176.181574 74.507180 176.010778 0.000000 0.000000 0.000000 
4.800765 78.448540 -4.699738 0.000000 0.000000 0.000000 8.966800 -82.929616 11.245257 -38.054679 -13.311196 18.559446 48.289506 -12.090517 16.849194 -14.487489 -5.179450 -30.210620 0.000000 0.000000 0.000000 5.327056 -82.603044 6.833714 -20.770537 6.105139 -35.945848 51.320935 8.573565 -7.597680 -24.395853 1.605594 32.090964 0.000000 0.000000 0.000000 7.121726 -80.994378 9.141555 -0.736703 2.104724 -0.328960 2.410934 4.403461 4.441000 -0.101143 3.723779 0.851536 0.000000 0.000000 0.000000 0.417587 3.688421 0.573405 -1.127340 3.138153 -0.772821 0.000000 0.000000 0.000000 0.657761 3.822339 0.646613 0.830026 10.068451 -4.900234 -5.373205 -2.237107 -64.998805 177.106190 -65.744177 175.394613 0.000000 0.000000 0.000000 0.150916 3.884606 0.820006 0.526819 9.273631 9.055268 -7.635777 35.284979 47.550715 -177.878685 71.643166 177.361681 0.000000 0.000000 0.000000 
4.106196 82.464752 -4.610413 0.000000 0.000000 0.000000 4.004506 -77.544750 5.664159 -36.804720 -10.856721 18.866985 37.897731 -12.627801 13.185825 -5.199201 -7.087265 -30.950340 0.000000 0.000000 0.000000 -0.319827 -77.352507 0.781158 -19.709576 3.773559 -34.200062 48.536018 8.194613 -6.812680 -11.470548 4.281614 30.204842 0.000000 0.000000 0.000000 0.221054 -76.273733 1.811917 -0.016415 0.980912 -0.591781 1.395915 4.023827 4.849137 -0.148868 3.559810 0.768610 0.000000 0.000000 0.000000 0.144240 3.538269 0.465559 -1.064372 2.937151 -0.749606 0.000000 0.000000 0.000000 0.519065 3.651283 0.482840 0.799768 8.988578 -4.408761 -5.094066 -6.073613 -62.397289 176.906735 -65.005465 175.240975 0.000000 0.000000 0.000000 0.184811 3.748740 0.675442 0.442318 8.423485 8.237502 -5.601178 32.745091 46.529001 -179.013903 68.058211 178.300285 0.000000 0.000000 0.000000 
3.451838 87.391609 -4.421139 0.000000 0.000000 0.000000 3.138127 -70.586658 4.223746 -35.079493 -7.951025 18.097008 27.995125 -12.017081 9.951035 3.925428 -7.899249 -29.207477 0.000000 0.000000 0.000000 -0.842869 -70.128312 0.056221 -19.826407 2.699899 -31.908772 45.793055 8.013598 -6.442403 5.661397 7.376998 26.581455 0.000000 0.000000 0.000000 -1.007639 -69.701070 0.376841 0.358188 -0.307504 -0.616984 0.453676 3.531783 5.018060 -0.186792 3.295386 0.689428 0.000000 0.000000 0.000000 -0.105316 3.305811 0.376625 -0.981722 2.718443 -0.728898 0.000000 0.000000 0.000000 0.290904 3.394792 0.323073 0.828854 7.582909 -4.391395 -5.457011 -9.479281 -59.680158 176.792657 -64.645029 175.412317 0.000000 0.000000 0.000000 0.125096 3.511497 0.503660 0.376879 7.632343 8.004039 -2.823456 29.075108 43.774197 -179.405697 65.002705 178.669061 0.000000 0.000000 0.000000 
2.975223 92.158821 -4.168274 0.000000 0.000000 0.000000 3.335678 -63.609238 3.912143 -33.805919 -5.330641 16.925624 22.862906 -10.655463 7.734399 9.935064 -7.021071 -26.003466 0.000000 0.000000 0.000000 0.210757 -62.542335 1.027423 -21.570530 3.149255 -28.845890 43.808058 8.193545 -6.265464 20.355726 9.169815 22.482642 0.000000 0.000000 0.000000 -0.280297 -62.742507 1.091489 0.584327 -0.968394 -0.619419 -0.145458 3.036296 4.873389 -0.143216 2.947781 0.610651 0.000000 0.000000 0.000000 -0.199598 2.995007 0.314986 -0.873300 2.509096 -0.723644 0.000000 0.000000 0.000000 0.118679 3.067007 0.175071 0.908663 6.063866 -4.855805 -6.228795 -12.160313 -57.670436 176.664591 -64.879735 175.728555 0.000000 0.000000 0.000000 0.049735 3.178014 0.332791 0.348915 6.859614 8.205366 -0.350783 24.875832 40.202374 -179.320415 63.724599 178.692598 0.000000 0.000000 0.000000 
2.749343 96.021889 -3.927052 0.000000 0.000000 0.000000 3.668653 -57.622987 3.974091 -33.930577 -2.710772 16.483159 23.827561 -8.756039 5.850415 13.286929 -5.173443 -22.782185 0.000000 0.000000 0.000000 0.994762 -56.138004 1.863294 -25.165916 3.966258 -25.562464 42.975557 8.167059 -5.598213 27.223510 9.058155 19.771871 0.000000 0.000000 0.000000 0.793570 -56.585580 2.224790 0.811233 -1.376219 -0.493730 -0.185001 2.521015 4.455513 0.002708 2.546736 0.524690 0.000000 0.000000 0.000000 -0.045741 2.623931 0.244900 -0.778329 2.320840 -0.750236 0.000000 0.000000 0.000000 0.061852 2.688806 0.067097 0.958072 4.689330 -5.681394 -7.215386 -14.052512 -56.901941 176.558751 -65.480040 176.090418 0.000000 0.000000 0.000000 0.058545 2.783516 0.184588 0.352038 6.220983 8.379505 0.903444 21.119003 37.099638 -179.053792 64.812614 178.563220 0.000000 0.000000 0.000000 
2.868808 98.573486 -3.783501 0.000000 0.000000 0.000000 3.890444 -52.870739 4.145865 -35.483550 0.030076 17.256722 29.826384 -6.926123 3.833509 14.876693 -3.506579 -20.555437 0.000000 0.000000 0.000000 1.366849 -51.474464 2.374076 -29.892641 4.120388 -22.874094 42.199723 7.739905 -4.380481 26.746302 7.828168 18.921086 0.000000 0.000000 0.000000 1.995433 -51.739291 3.418961 0.795002 -1.304851 -0.488813 0.227136 1.924479 3.775490 0.240607 2.115354 0.395828 0.000000 0.000000 0.000000 0.290095 2.197906 0.116195 -0.757197 2.160529 -0.797153 0.000000 0.000000 0.000000 0.152073 2.269834 -0.030287 0.992476 3.565602 -6.559622 -8.293210 -15.314611 -57.400418 176.595552 -65.997864 176.474056 0.000000 0.000000 0.000000 0.177646 2.337889 0.044816 0.403359 5.715889 8.339494 0.705071 18.554839 35.482201 -178.762061 67.808083 178.335747 0.000000 0.000000 0.000000 
